<svg width="100%" height="100%" version="1.1" 
  xmlns="http://www.w3.org/2000/svg" 
  xmlns:xlink="http://www.w3.org/1999/xlink" 
  xmlns:svgjs="http://svgjs.com/svgjs" 
style="stroke-linecap: round; stroke-linejoin: round; stroke-miterlimit: 20; background: rgba(0, 0, 0, 1);"
viewBox="-4002.44453125 3859.624267578125 20120.176171875 17605.33251953125">
  <svg id="S-88-675ecc" style="overflow: visible; pointer-events: all;">
    <g id="G-a4-1daa65" transform="matrix(1.0000000000000002,0,0,1.0000000000000002,-3078.4153442382812,-1250.9004317926383)">
      <polygon id="P-05-929426" points="4275.02294921875,9056.999221801758 5197.201904296875,11563.766799926758 6592.68017578125,9649.3466796875 5674.86181640625,7141.9111328125" style="stroke: rgb(255, 255, 255); stroke-opacity: 1; stroke-width: 1; fill: rgb(23, 114, 0); fill-opacity: 1;" transform="matrix(1,0,0,1,-2877.4934939591103,-0.001953125058207661)"></polygon>
      <polygon id="P-52-4ba04e" points="2797.36865234375,7141.9091796875 3715.18701171875,9649.3447265625 6590.939453125,9649.6796875 5675.155400276184,7141.91015625" style="stroke: rgb(255, 255, 255); stroke-opacity: 1; stroke-width: 1; fill: rgb(0, 192, 10); fill-opacity: 1;" transform="matrix(1,0,0,1,9.094947017729282e-13,0)"></polygon>
      <polygon id="P-d6-027c3d" points="2798.16162109375,7140.5732421875 1392.6609497070312,9061.64453125 4263.105041503906,9061.64453125 5673.9140625,7140.908203125" style="stroke: rgb(255, 255, 255); stroke-opacity: 1; stroke-width: 1; fill: rgb(141, 0, 0); fill-opacity: 1;" transform="matrix(1,0,0,1,917.0254179544863,2508.771315001585)"></polygon>
    </g>
  </svg>
  <svg id="S-0d-493d04" style="overflow: visible; pointer-events: all;">
    <g id="G-14-5ab38a" transform="matrix(1,0,0,1,-1959.0067481606145,1828.04833984375)">
      <polygon id="P-e5-1292e6" points="4275.02294921875,9056.999221801758 5197.201904296875,11563.766799926758 6592.68017578125,9649.3466796875 5674.86181640625,7141.9111328125" style="stroke: rgb(255, 255, 255); stroke-opacity: 1; stroke-width: 0px; fill: rgb(128, 0, 0); fill-opacity: 1;" transform="matrix(1,0,0,1,-2877.4934939591103,-0.001953125058207661)"></polygon>
      <polygon id="P-fb-c0646b" points="2797.36865234375,7141.9091796875 3715.18701171875,9649.3447265625 6590.939453125,9649.6796875 5675.155400276184,7141.91015625" style="stroke: rgb(255, 255, 255); stroke-opacity: 1; stroke-width: 0px; fill: rgb(192, 0, 0); fill-opacity: 1;" transform="matrix(1,0,0,1,9.094947017729282e-13,0)"></polygon>
      <polygon id="P-9b-59c894" points="2798.16162109375,7140.5732421875 1392.6609497070312,9061.64453125 4263.105041503906,9061.64453125 5673.9140625,7140.908203125" style="stroke: rgb(255, 255, 255); stroke-opacity: 1; stroke-width: 0px; fill: rgb(95, 0, 0); fill-opacity: 1;" transform="matrix(1,0,0,1,917.0254179544863,2508.771315001585)"></polygon>
    </g>
  </svg>
  <svg id="S-c7-2568a6" style="overflow: visible; pointer-events: all;">
    <g id="G-0c-b00260" transform="matrix(0.9999999999999999,0,0,0.9999999999999999,7205.233391230835,7842.68310546875)">
      <polygon id="P-ff-5be490" points="4275.02294921875,9056.999221801758 5197.201904296875,11563.766799926758 6592.68017578125,9649.3466796875 5674.86181640625,7141.9111328125" style="stroke: rgb(255, 255, 255); stroke-opacity: 1; stroke-width: 0px; fill: rgb(95, 0, 190); fill-opacity: 1;" transform="matrix(1,0,0,1,-2877.4934939591103,-0.001953125058207661)"></polygon>
      <polygon id="P-61-485282" points="2797.36865234375,7141.9091796875 3715.18701171875,9649.3447265625 6590.939453125,9649.6796875 5675.155400276184,7141.91015625" style="stroke: rgb(255, 255, 255); stroke-opacity: 1; stroke-width: 0px; fill: rgb(128, 0, 255); fill-opacity: 1;" transform="matrix(1,0,0,1,9.094947017729282e-13,0)"></polygon>
      <polygon id="P-8d-aa45a0" points="2798.16162109375,7140.5732421875 1392.6609497070312,9061.64453125 4263.105041503906,9061.64453125 5673.9140625,7140.908203125" style="stroke: rgb(255, 255, 255); stroke-opacity: 1; stroke-width: 0px; fill: rgb(57, 0, 113); fill-opacity: 1;" transform="matrix(1,0,0,1,917.0254179544863,2508.771315001585)"></polygon>
    </g>
  </svg>
  <svg id="layer 11" style="overflow: visible;">
    <g id="G-75-2feff9" transform="matrix(0.9999999999999999,0,0,0.9999999999999999,-859.5179699515684,4849.755515627722)">
      <polygon id="P-5f-f076af" points="4275.02294921875,9056.999221801758 5197.201904296875,11563.766799926758 6592.68017578125,9649.3466796875 5674.86181640625,7141.9111328125" style="stroke: rgb(255, 255, 255); stroke-opacity: 1; stroke-width: 0px; fill: rgb(95, 0, 190); fill-opacity: 1;" transform="matrix(1,0,0,1,-2877.4934939591103,-0.001953125058207661)"></polygon>
      <polygon id="P-df-8beb7a" points="2797.36865234375,7141.9091796875 3715.18701171875,9649.3447265625 6590.939453125,9649.6796875 5675.155400276184,7141.91015625" style="stroke: rgb(255, 255, 255); stroke-opacity: 1; stroke-width: 0px; fill: rgb(128, 0, 255); fill-opacity: 1;" transform="matrix(1,0,0,1,9.094947017729282e-13,0)"></polygon>
      <polygon id="P-91-d1eb2b" points="2798.16162109375,7140.5732421875 1392.6609497070312,9061.64453125 4263.105041503906,9061.64453125 5673.9140625,7140.908203125" style="stroke: rgb(255, 255, 255); stroke-opacity: 1; stroke-width: 0px; fill: rgb(57, 0, 113); fill-opacity: 1;" transform="matrix(1,0,0,1,917.0254179544863,2508.771315001585)"></polygon>
    </g>
  </svg>
  <svg id="S-8c-723d83" style="overflow: visible; pointer-events: all;">
    <g id="G-38-dc01e8" transform="matrix(1,0,0,1,3750.030754512084,7863.14404296875)">
      <polygon id="P-fd-dd07d9" points="4275.02294921875,9056.999221801758 5197.201904296875,11563.766799926758 6592.68017578125,9649.3466796875 5674.86181640625,7141.9111328125" style="stroke: rgb(255, 255, 255); stroke-opacity: 1; stroke-width: 0px; fill: rgb(128, 0, 0); fill-opacity: 1;" transform="matrix(1,0,0,1,-2877.4934939591103,-0.001953125058207661)"></polygon>
      <polygon id="P-20-b65379" points="2797.36865234375,7141.9091796875 3715.18701171875,9649.3447265625 6590.939453125,9649.6796875 5675.155400276184,7141.91015625" style="stroke: rgb(255, 255, 255); stroke-opacity: 1; stroke-width: 0px; fill: rgb(192, 0, 0); fill-opacity: 1;" transform="matrix(1,0,0,1,9.094947017729282e-13,0)"></polygon>
      <polygon id="P-69-afeeda" points="2798.16162109375,7140.5732421875 1392.6609497070312,9061.64453125 4263.105041503906,9061.64453125 5673.9140625,7140.908203125" style="stroke: rgb(255, 255, 255); stroke-opacity: 1; stroke-width: 0px; fill: rgb(86, 0, 0); fill-opacity: 1;" transform="matrix(1,0,0,1,917.0254179544863,2508.771315001585)"></polygon>
    </g>
  </svg>
  <svg id="S-bb-b09907" style="overflow: visible; pointer-events: all;">
    <g id="G-c6-bad688" transform="matrix(1,0,0,1,299.2913818359375,7863.156907515713)">
      <polygon id="P-bd-c975d8" points="4275.02294921875,9056.999221801758 5197.201904296875,11563.766799926758 6592.68017578125,9649.3466796875 5674.86181640625,7141.9111328125" style="stroke: rgb(255, 255, 255); stroke-opacity: 1; stroke-width: 0px; fill: rgb(188, 188, 0); fill-opacity: 1;" transform="matrix(1,0,0,1,-2877.4934939591103,-0.001953125058207661)"></polygon>
      <polygon id="P-d5-aea60f" points="2797.36865234375,7141.9091796875 3715.18701171875,9649.3447265625 6590.939453125,9649.6796875 5675.155400276184,7141.91015625" style="stroke: rgb(255, 255, 255); stroke-opacity: 1; stroke-width: 0px; fill: rgb(255, 255, 0); fill-opacity: 1;" transform="matrix(1,0,0,1,9.094947017729282e-13,0)"></polygon>
      <polygon id="P-8d-69fcf3" points="2798.16162109375,7140.5732421875 1392.6609497070312,9061.64453125 4263.105041503906,9061.64453125 5673.9140625,7140.908203125" style="stroke: rgb(255, 255, 255); stroke-opacity: 1; stroke-width: 0px; fill: rgb(105, 105, 0); fill-opacity: 1;" transform="matrix(1,0,0,1,917.0254179544863,2508.771315001585)"></polygon>
    </g>
  </svg>
  <defs id="SvgjsDefs108676"></defs>
</svg>